<?xml version="1.0" encoding="UTF-8"?>
<!DOCTYPE svg PUBLIC "-//W3C//DTD SVG 1.1//EN" "http://www.w3.org/Graphics/SVG/1.1/DTD/svg11.dtd">
<svg xmlns="http://www.w3.org/2000/svg" xmlns:xlink="http://www.w3.org/1999/xlink">
    <defs>
        <symbol xmlns="http://www.w3.org/2000/svg" id="arrow" viewBox="0 0 41.04 31">
            <path d="m0,15.5h41m0,0c-5.21-.22-15.64-3.64-15.64-15.5m15.64,15.5c-5.21.15-15.64,3.46-15.64,15.5"/>
        </symbol>
        <symbol id="separator-about" xmlns="http://www.w3.org/2000/svg" viewBox="0 0 390 44.5">
            <path style="fill: #fff" d="m390,44.5L0,0h390v44.5Z"/>
        </symbol>
        <symbol id="star--white" xmlns="http://www.w3.org/2000/svg" viewBox="0 0 27 28">
            <path style="fill: #fff" d="m9.64,9.96L13.5,0l3.86,9.96,9.64,3.98-9.64,3.98-3.86,10.07-3.86-10.07L0,13.94l9.64-3.98Z"/>
        </symbol>
        <symbol id="star--black" xmlns="http://www.w3.org/2000/svg" viewBox="0 0 27 28">
            <path style="fill: #1B1B1B" d="m9.64,9.96L13.5,0l3.86,9.96,9.64,3.98-9.64,3.98-3.86,10.07-3.86-10.07L0,13.94l9.64-3.98Z"/>
        </symbol>
    </defs>
</svg>