<svg width="1270" height="1106" viewBox="0 0 1270 1106" fill="none" xmlns="http://www.w3.org/2000/svg">
<g filter="url(#filter0_f_2158_62)">
<path d="M510.143 258.451L515 246L519.857 258.451L532 263.431L519.857 268.411L515 281L510.143 268.411L498 263.431L510.143 258.451Z" fill="white"/>
</g>
<g filter="url(#filter1_f_2158_62)">
<path d="M797.571 161.814L809 133L820.429 161.814L849 173.34L820.429 184.866L809 214L797.571 184.866L769 173.34L797.571 161.814Z" fill="white"/>
</g>
<g filter="url(#filter2_f_2158_62)">
<path d="M1217 307.277L1225 287L1233 307.277L1253 315.387L1233 323.498L1225 344L1217 323.498L1197 315.387L1217 307.277Z" fill="white"/>
</g>
<g filter="url(#filter3_f_2158_62)">
<path d="M218.5 24.7668L227.5 2L236.5 24.7668L259 33.8735L236.5 42.9802L227.5 66L218.5 42.9802L196 33.8735L218.5 24.7668Z" fill="white"/>
</g>
<g filter="url(#filter4_f_2158_62)">
<path d="M24.5 366.767L33.5 344L42.5 366.767L65 375.874L42.5 384.98L33.5 408L24.5 384.98L2 375.874L24.5 366.767Z" fill="white"/>
</g>
<g filter="url(#filter5_f_2158_62)">
<path d="M913.5 387.043L930.5 344L947.5 387.043L990 404.261L947.5 421.478L930.5 465L913.5 421.478L871 404.261L913.5 387.043Z" fill="white"/>
</g>
<g filter="url(#filter6_f_2158_62)">
<path d="M61 687.534L79 642L97 687.534L142 705.747L97 723.96L79 770L61 723.96L16 705.747L61 687.534Z" fill="white"/>
</g>
<g filter="url(#filter7_f_2158_62)">
<path d="M457.5 935.767L466.5 913L475.5 935.767L498 944.874L475.5 953.98L466.5 977L457.5 953.98L435 944.874L457.5 935.767Z" fill="white"/>
</g>
<g filter="url(#filter8_f_2158_62)">
<path d="M405.571 759.794L419 726L432.429 759.794L466 773.312L432.429 786.83L419 821L405.571 786.83L372 773.312L405.571 759.794Z" fill="white"/>
</g>
<g filter="url(#filter9_f_2158_62)">
<path d="M871.5 1062.77L880.5 1040L889.5 1062.77L912 1071.87L889.5 1080.98L880.5 1104L871.5 1080.98L849 1071.87L871.5 1062.77Z" fill="white"/>
</g>
<g filter="url(#filter10_f_2158_62)">
<path d="M1090.5 644.767L1099.5 622L1108.5 644.767L1131 653.874L1108.5 662.98L1099.5 686L1090.5 662.98L1068 653.874L1090.5 644.767Z" fill="white"/>
</g>
<g filter="url(#filter11_f_2158_62)">
<path d="M1217.86 973.103L1229 945L1240.14 973.103L1268 984.344L1240.14 995.585L1229 1024L1217.86 995.585L1190 984.344L1217.86 973.103Z" fill="white"/>
</g>
<defs>
<filter id="filter0_f_2158_62" x="496" y="244" width="38" height="39" filterUnits="userSpaceOnUse" color-interpolation-filters="sRGB">
<feFlood flood-opacity="0" result="BackgroundImageFix"/>
<feBlend mode="normal" in="SourceGraphic" in2="BackgroundImageFix" result="shape"/>
<feGaussianBlur stdDeviation="1" result="effect1_foregroundBlur_2158_62"/>
</filter>
<filter id="filter1_f_2158_62" x="767" y="131" width="84" height="85" filterUnits="userSpaceOnUse" color-interpolation-filters="sRGB">
<feFlood flood-opacity="0" result="BackgroundImageFix"/>
<feBlend mode="normal" in="SourceGraphic" in2="BackgroundImageFix" result="shape"/>
<feGaussianBlur stdDeviation="1" result="effect1_foregroundBlur_2158_62"/>
</filter>
<filter id="filter2_f_2158_62" x="1195" y="285" width="60" height="61" filterUnits="userSpaceOnUse" color-interpolation-filters="sRGB">
<feFlood flood-opacity="0" result="BackgroundImageFix"/>
<feBlend mode="normal" in="SourceGraphic" in2="BackgroundImageFix" result="shape"/>
<feGaussianBlur stdDeviation="1" result="effect1_foregroundBlur_2158_62"/>
</filter>
<filter id="filter3_f_2158_62" x="194" y="0" width="67" height="68" filterUnits="userSpaceOnUse" color-interpolation-filters="sRGB">
<feFlood flood-opacity="0" result="BackgroundImageFix"/>
<feBlend mode="normal" in="SourceGraphic" in2="BackgroundImageFix" result="shape"/>
<feGaussianBlur stdDeviation="1" result="effect1_foregroundBlur_2158_62"/>
</filter>
<filter id="filter4_f_2158_62" x="0" y="342" width="67" height="68" filterUnits="userSpaceOnUse" color-interpolation-filters="sRGB">
<feFlood flood-opacity="0" result="BackgroundImageFix"/>
<feBlend mode="normal" in="SourceGraphic" in2="BackgroundImageFix" result="shape"/>
<feGaussianBlur stdDeviation="1" result="effect1_foregroundBlur_2158_62"/>
</filter>
<filter id="filter5_f_2158_62" x="869" y="342" width="123" height="125" filterUnits="userSpaceOnUse" color-interpolation-filters="sRGB">
<feFlood flood-opacity="0" result="BackgroundImageFix"/>
<feBlend mode="normal" in="SourceGraphic" in2="BackgroundImageFix" result="shape"/>
<feGaussianBlur stdDeviation="1" result="effect1_foregroundBlur_2158_62"/>
</filter>
<filter id="filter6_f_2158_62" x="14" y="640" width="130" height="132" filterUnits="userSpaceOnUse" color-interpolation-filters="sRGB">
<feFlood flood-opacity="0" result="BackgroundImageFix"/>
<feBlend mode="normal" in="SourceGraphic" in2="BackgroundImageFix" result="shape"/>
<feGaussianBlur stdDeviation="1" result="effect1_foregroundBlur_2158_62"/>
</filter>
<filter id="filter7_f_2158_62" x="433" y="911" width="67" height="68" filterUnits="userSpaceOnUse" color-interpolation-filters="sRGB">
<feFlood flood-opacity="0" result="BackgroundImageFix"/>
<feBlend mode="normal" in="SourceGraphic" in2="BackgroundImageFix" result="shape"/>
<feGaussianBlur stdDeviation="1" result="effect1_foregroundBlur_2158_62"/>
</filter>
<filter id="filter8_f_2158_62" x="370" y="724" width="98" height="99" filterUnits="userSpaceOnUse" color-interpolation-filters="sRGB">
<feFlood flood-opacity="0" result="BackgroundImageFix"/>
<feBlend mode="normal" in="SourceGraphic" in2="BackgroundImageFix" result="shape"/>
<feGaussianBlur stdDeviation="1" result="effect1_foregroundBlur_2158_62"/>
</filter>
<filter id="filter9_f_2158_62" x="847" y="1038" width="67" height="68" filterUnits="userSpaceOnUse" color-interpolation-filters="sRGB">
<feFlood flood-opacity="0" result="BackgroundImageFix"/>
<feBlend mode="normal" in="SourceGraphic" in2="BackgroundImageFix" result="shape"/>
<feGaussianBlur stdDeviation="1" result="effect1_foregroundBlur_2158_62"/>
</filter>
<filter id="filter10_f_2158_62" x="1066" y="620" width="67" height="68" filterUnits="userSpaceOnUse" color-interpolation-filters="sRGB">
<feFlood flood-opacity="0" result="BackgroundImageFix"/>
<feBlend mode="normal" in="SourceGraphic" in2="BackgroundImageFix" result="shape"/>
<feGaussianBlur stdDeviation="1" result="effect1_foregroundBlur_2158_62"/>
</filter>
<filter id="filter11_f_2158_62" x="1188" y="943" width="82" height="83" filterUnits="userSpaceOnUse" color-interpolation-filters="sRGB">
<feFlood flood-opacity="0" result="BackgroundImageFix"/>
<feBlend mode="normal" in="SourceGraphic" in2="BackgroundImageFix" result="shape"/>
<feGaussianBlur stdDeviation="1" result="effect1_foregroundBlur_2158_62"/>
</filter>
</defs>
</svg>
