<svg width="1264" height="952" viewBox="0 0 1264 952" fill="none" xmlns="http://www.w3.org/2000/svg">
<path d="M157.5 17.7866L164.5 0L171.5 17.7866L189 24.9012L171.5 32.0158L164.5 50L157.5 32.0158L140 24.9012L157.5 17.7866Z" fill="white"/>
<path d="M469 53.9012L479 29L489 53.9012L514 63.8617L489 73.8221L479 99L469 73.8221L444 63.8617L469 53.9012Z" fill="white"/>
<path d="M37.5714 463.518L43 450L48.4286 463.518L62 468.925L48.4286 474.332L43 488L37.5714 474.332L24 468.925L37.5714 463.518Z" fill="white"/>
<path d="M1195.79 181.391L1206.5 154L1217.21 181.391L1244 192.348L1217.21 203.304L1206.5 231L1195.79 203.304L1169 192.348L1195.79 181.391Z" fill="white"/>
<path d="M1246.64 721.605L1250.5 712L1254.36 721.605L1264 725.447L1254.36 729.289L1250.5 739L1246.64 729.289L1237 725.447L1246.64 721.605Z" fill="white"/>
<path d="M789.643 530.605L793.5 521L797.357 530.605L807 534.447L797.357 538.289L793.5 548L789.643 538.289L780 534.447L789.643 530.605Z" fill="white"/>
<path d="M198.643 761.605L202.5 752L206.357 761.605L216 765.447L206.357 769.289L202.5 779L198.643 769.289L189 765.447L198.643 761.605Z" fill="white"/>
<path d="M71.6429 328.605L75.5 319L79.3571 328.605L89 332.447L79.3571 336.289L75.5 346L71.6429 336.289L62 332.447L71.6429 328.605Z" fill="white"/>
<path d="M721.643 45.6047L725.5 36L729.357 45.6047L739 49.4466L729.357 53.2885L725.5 63L721.643 53.2885L712 49.4466L721.643 45.6047Z" fill="white"/>
<path d="M1106.64 136.605L1110.5 127L1114.36 136.605L1124 140.447L1114.36 144.289L1110.5 154L1106.64 144.289L1097 140.447L1106.64 136.605Z" fill="white"/>
<path d="M942.214 909.478L951.5 886L960.786 909.478L984 918.87L960.786 928.261L951.5 952L942.214 928.261L919 918.87L942.214 909.478Z" fill="white"/>
<path d="M1007.57 511.834L1017 488L1026.43 511.834L1050 521.368L1026.43 530.901L1017 555L1007.57 530.901L984 521.368L1007.57 511.834Z" fill="white"/>
<path d="M874.286 699.862L888 665L901.714 699.862L936 713.806L901.714 727.751L888 763L874.286 727.751L840 713.806L874.286 699.862Z" fill="white"/>
<path d="M259.143 507.411L268 485L276.857 507.411L299 516.375L276.857 525.34L268 548L259.143 525.34L237 516.375L259.143 507.411Z" fill="white"/>
<path d="M358.857 668.399L376 625L393.143 668.399L436 685.759L393.143 703.119L376 747L358.857 703.119L316 685.759L358.857 668.399Z" fill="white"/>
<path d="M22.5 737.767L31.5 715L40.5 737.767L63 746.874L40.5 755.98L31.5 779L22.5 755.98L0 746.874L22.5 737.767Z" fill="white"/>
</svg>
