<svg width="94" height="73" viewBox="0 0 94 73" fill="none" xmlns="http://www.w3.org/2000/svg">
<g clip-path="url(#clip0_1128_19)">
<path d="M0 5.51285H13.7444V29.4423H13.864L43.5639 5.51285H60.8938L34.1818 26.595L62.6268 53.3112H43.3249L23.9631 34.6523L13.7444 42.7095V53.3112H0V5.51285Z" fill="white"/>
<path d="M68.6623 14.5394L74.2796 0L79.8969 14.5394L93.9999 20.3552L79.8969 26.171L74.2796 40.8921L68.6623 26.171L54.5593 20.3552L68.6623 14.5394Z" fill="white"/>
<path d="M28.445 57.6124L31.7317 49.1311L35.0184 57.6124L43.2053 61.005L35.0184 64.3975L31.7317 73L28.445 64.3975L20.2581 61.005L28.445 57.6124Z" fill="white"/>
</g>
<defs>
<clipPath id="clip0_1128_19">
<rect width="94" height="73" fill="white"/>
</clipPath>
</defs>
</svg>
